<?xml version="1.0" standalone="no"?>
<!DOCTYPE svg PUBLIC "-//W3C//DTD SVG 20010904//EN"
 "http://www.w3.org/TR/2001/REC-SVG-20010904/DTD/svg10.dtd">
<svg version="1.0" xmlns="http://www.w3.org/2000/svg"
 width="349.000000pt" height="350.000000pt" viewBox="0 0 349.000000 350.000000"
 preserveAspectRatio="xMidYMid meet">

<g transform="translate(0.000000,350.000000) scale(0.100000,-0.100000)"
fill="#000000" stroke="none">
<path d="M42 1763 l3 -1708 1713 -3 1712 -2 0 1710 0 1710 -1715 0 -1715 0 2
-1707z m2158 582 l0 -75 -310 0 -310 0 0 -200 0 -200 280 0 280 0 0 -70 0 -70
-280 0 -280 0 0 -290 0 -290 -85 0 -85 0 0 635 0 635 395 0 395 0 0 -75z"/>
</g>
</svg>
