<?xml version="1.0" standalone="no"?>
<!DOCTYPE svg PUBLIC "-//W3C//DTD SVG 20010904//EN"
 "http://www.w3.org/TR/2001/REC-SVG-20010904/DTD/svg10.dtd">
<svg version="1.0" xmlns="http://www.w3.org/2000/svg"
 width="145.000000pt" height="134.000000pt" viewBox="0 0 145.000000 134.000000"
 preserveAspectRatio="xMidYMid meet">

<g transform="translate(0.000000,134.000000) scale(0.100000,-0.100000)"
fill="#000000" stroke="none">
<path d="M480 1242 c-6 -2 -10 -81 -10 -208 l0 -204 -124 0 c-68 0 -131 -3
-140 -6 -14 -5 -16 -46 -16 -354 l0 -348 24 -6 c30 -7 1029 -7 1074 1 l32 5 0
348 c0 308 -2 349 -16 354 -9 3 -72 6 -140 6 l-124 0 0 205 0 205 -22 0 c-13
0 -137 1 -276 2 -138 2 -257 2 -262 0z m530 -562 l0 -530 -45 0 -44 0 -3 108
-3 107 -160 0 -160 0 -3 -107 -3 -108 -44 0 -45 0 0 530 0 530 255 0 255 0 0
-530z m-540 -210 l0 -320 -125 0 -125 0 0 320 0 320 125 0 125 0 0 -320z m820
0 l0 -320 -125 0 -125 0 0 320 0 320 125 0 125 0 0 -320z m-552 -227 l3 -93
-56 0 -55 0 0 96 0 95 53 -3 52 -3 3 -92z m142 2 l0 -95 -55 0 -55 0 0 88 c0
49 3 92 7 95 3 4 28 7 55 7 l48 0 0 -95z"/>
<path d="M697 1124 c-4 -4 -7 -22 -7 -40 0 -31 -2 -33 -37 -36 l-38 -3 0 -60
0 -60 37 -3 c35 -3 37 -5 40 -40 l3 -37 60 0 60 0 3 37 c3 35 5 37 40 40 l37
3 0 60 0 60 -37 3 c-35 3 -37 5 -40 40 l-3 37 -55 3 c-31 2 -59 0 -63 -4z m91
-66 c3 -36 5 -38 38 -38 32 0 34 -2 34 -35 0 -33 -2 -35 -35 -35 -33 0 -35 -2
-35 -35 0 -33 -2 -35 -35 -35 -33 0 -35 2 -35 35 0 33 -2 35 -34 35 -25 0 -36
5 -38 18 -8 36 3 52 38 52 32 0 34 2 34 33 0 41 7 49 40 45 21 -3 25 -9 28
-40z"/>
<path d="M597 733 c-12 -11 -8 -111 5 -119 14 -9 96 -13 116 -6 8 3 12 26 12
68 l0 64 -63 0 c-35 0 -67 -3 -70 -7z m103 -58 c0 -33 -2 -35 -35 -35 -33 0
-35 2 -35 35 0 33 2 35 35 35 33 0 35 -2 35 -35z"/>
<path d="M780 677 c0 -47 4 -66 14 -70 19 -8 109 2 119 12 4 4 7 32 5 62 l-3
54 -67 3 -68 3 0 -64z m100 -2 c0 -33 -2 -35 -35 -35 -33 0 -35 2 -35 35 0 33
2 35 35 35 33 0 35 -2 35 -35z"/>
<path d="M597 553 c-13 -13 -7 -110 7 -122 8 -7 37 -11 68 -9 l53 3 3 68 3 67
-64 0 c-35 0 -67 -3 -70 -7z m103 -58 c0 -33 -2 -35 -35 -35 -33 0 -35 2 -35
35 0 33 2 35 35 35 33 0 35 -2 35 -35z"/>
<path d="M782 493 l3 -68 65 0 65 0 0 65 0 65 -68 3 -68 3 3 -68z m98 2 c0
-33 -2 -35 -35 -35 -33 0 -35 2 -35 35 0 33 2 35 35 35 33 0 35 -2 35 -35z"/>
<path d="M282 673 l3 -68 55 -1 c30 0 61 4 68 9 12 10 17 83 6 111 -5 12 -21
16 -71 16 l-64 0 3 -67z m98 2 c0 -33 -2 -35 -35 -35 -33 0 -35 2 -35 35 0 33
2 35 35 35 33 0 35 -2 35 -35z"/>
<path d="M282 493 l3 -68 53 -3 c67 -4 82 8 82 63 0 71 -4 75 -77 75 l-64 0 3
-67z m98 2 c0 -33 -2 -35 -35 -35 -33 0 -35 2 -35 35 0 33 2 35 35 35 33 0 35
-2 35 -35z"/>
<path d="M1102 673 l3 -68 40 2 c94 3 85 -4 85 68 l0 65 -65 0 -66 0 3 -67z
m98 2 c0 -33 -2 -35 -35 -35 -33 0 -35 2 -35 35 0 33 2 35 35 35 33 0 35 -2
35 -35z"/>
<path d="M1099 538 c-2 -13 -2 -43 1 -68 l5 -45 60 0 60 0 3 68 3 67 -64 0
c-59 0 -65 -2 -68 -22z m101 -43 c0 -33 -2 -35 -35 -35 -33 0 -35 2 -35 35 0
33 2 35 35 35 33 0 35 -2 35 -35z"/>
</g>
</svg>
