<?xml version="1.0" standalone="no"?>
<!DOCTYPE svg PUBLIC "-//W3C//DTD SVG 20010904//EN"
 "http://www.w3.org/TR/2001/REC-SVG-20010904/DTD/svg10.dtd">
<svg version="1.0" xmlns="http://www.w3.org/2000/svg"
 width="305.000000pt" height="286.000000pt" viewBox="0 0 305.000000 286.000000"
 preserveAspectRatio="xMidYMid meet">

<g transform="translate(0.000000,286.000000) scale(0.100000,-0.100000)"
fill="#000000" stroke="none">
<path d="M2178 2613 c-10 -2 -20 -14 -22 -26 -3 -12 -10 -254 -16 -537 -6
-283 -13 -565 -17 -627 l-6 -112 -73 -35 c-40 -20 -77 -36 -83 -36 -7 0 -12
127 -13 393 l-3 392 -78 3 c-50 2 -84 -1 -93 -9 -12 -9 -14 -85 -14 -449 l0
-438 -82 -41 c-46 -22 -86 -41 -90 -41 -4 0 -9 69 -10 152 -3 136 -5 153 -20
156 -10 2 -158 -67 -329 -152 -172 -86 -314 -156 -316 -156 -1 0 -3 61 -3 136
0 135 -8 174 -35 174 -8 0 -173 -79 -365 -175 l-350 -175 0 -430 0 -430 26
-10 c35 -14 2693 -14 2728 0 l26 10 0 589 c0 324 -3 596 -6 605 -3 9 -15 16
-25 16 -11 0 -92 -36 -180 -81 -89 -44 -163 -78 -165 -76 -4 4 -17 453 -32
1094 -4 166 -11 305 -15 310 -9 9 -310 15 -339 6z m276 -72 c3 -4 10 -233 15
-507 6 -274 13 -583 16 -686 l6 -187 -110 -56 c-61 -30 -113 -55 -116 -55 -2
0 -6 69 -7 153 l-3 152 -32 3 -31 3 4 157 c3 86 9 349 14 584 5 235 11 432 15
438 8 12 222 14 229 1z m-564 -960 l0 -380 -22 -15 c-12 -9 -26 -16 -30 -16
-5 0 -8 178 -8 395 l0 395 30 0 30 0 0 -379z m-1048 -463 c3 -148 4 -153 24
-156 13 -2 153 62 333 152 171 86 313 156 316 156 2 0 6 -69 7 -152 3 -148 4
-153 24 -156 13 -2 153 62 333 152 l311 156 0 -139 c0 -77 3 -146 6 -155 3 -9
16 -16 29 -16 12 0 161 70 331 155 170 85 310 155 312 155 1 0 1 -240 0 -532
l-3 -533 -1315 0 -1315 0 -3 382 -2 382 297 149 c164 83 301 151 305 151 4 1
9 -68 10 -151z"/>
<path d="M368 639 c-16 -9 -18 -26 -18 -122 0 -75 4 -117 12 -125 16 -16 160
-16 176 0 8 8 12 50 12 125 0 101 -2 113 -19 123 -25 13 -141 13 -163 -1z
m112 -124 l0 -65 -30 0 -30 0 0 65 0 65 30 0 30 0 0 -65z"/>
<path d="M646 634 c-20 -20 -23 -223 -4 -242 7 -7 44 -12 95 -12 104 0 106 3
101 146 -2 80 -7 107 -18 114 -26 17 -156 12 -174 -6z m122 -121 l3 -63 -36 0
-35 0 0 58 c0 67 4 74 40 70 23 -3 25 -7 28 -65z"/>
<path d="M926 628 c-16 -26 -20 -187 -5 -225 8 -21 14 -23 92 -23 51 0 88 5
95 12 8 8 12 49 12 119 0 135 -3 139 -105 139 -66 0 -76 -2 -89 -22z m122
-115 l3 -63 -31 0 -30 0 0 66 0 65 28 -3 c26 -3 27 -6 30 -65z"/>
<path d="M1218 639 c-16 -9 -18 -26 -18 -122 0 -75 4 -117 12 -125 12 -12 143
-17 172 -6 13 5 16 26 16 125 0 107 -2 119 -19 129 -25 13 -141 13 -163 -1z
m112 -124 l0 -65 -30 0 c-30 0 -30 0 -30 58 0 65 3 72 37 72 22 0 23 -4 23
-65z"/>
<path d="M1496 634 c-22 -21 -23 -226 -2 -243 9 -8 45 -11 98 -9 l83 3 3 124
c2 93 -1 126 -10 133 -24 15 -155 9 -172 -8z m122 -121 l3 -63 -36 0 -35 0 0
58 c0 67 4 74 40 70 23 -3 25 -7 28 -65z"/>
</g>
</svg>
