<?xml version="1.0" standalone="no"?>
<!DOCTYPE svg PUBLIC "-//W3C//DTD SVG 20010904//EN"
 "http://www.w3.org/TR/2001/REC-SVG-20010904/DTD/svg10.dtd">
<svg version="1.0" xmlns="http://www.w3.org/2000/svg"
 width="350.000000pt" height="356.000000pt" viewBox="0 0 350.000000 356.000000"
 preserveAspectRatio="xMidYMid meet">

<g transform="translate(0.000000,356.000000) scale(0.100000,-0.100000)"
fill="#000000" stroke="none">
<path d="M1583 3451 c-76 -9 -93 -30 -109 -135 -22 -152 -81 -245 -196 -307
-60 -33 -68 -34 -168 -34 -94 0 -111 3 -164 28 -32 15 -76 43 -98 63 -85 77
-115 69 -260 -64 -33 -31 -88 -87 -120 -125 -50 -58 -58 -73 -58 -107 0 -33 8
-51 45 -96 57 -70 80 -114 95 -187 23 -115 -12 -228 -100 -321 -64 -67 -137
-101 -250 -115 -112 -14 -128 -29 -142 -137 -5 -43 -7 -139 -4 -213 8 -183 16
-194 153 -211 148 -19 244 -87 307 -219 27 -58 31 -77 31 -151 0 -74 -4 -93
-31 -150 -17 -36 -49 -87 -72 -113 -63 -73 -60 -103 22 -199 85 -99 208 -210
248 -224 40 -14 65 -6 121 40 83 67 142 89 249 94 92 4 101 3 161 -26 135 -63
201 -159 217 -317 12 -116 29 -136 127 -146 85 -10 239 -10 316 0 81 10 96 29
112 134 22 152 83 246 197 307 53 28 76 35 144 38 123 7 192 -18 309 -112 47
-38 92 -38 140 -2 60 46 156 139 217 209 50 58 58 73 58 108 0 34 -7 49 -41
87 -110 125 -136 281 -69 419 62 130 155 194 305 213 50 6 100 18 113 26 40
26 46 58 46 259 1 249 -3 256 -150 275 -146 19 -240 83 -301 208 -35 70 -38
83 -38 161 0 75 4 94 31 151 17 36 49 87 72 113 34 39 42 56 42 87 0 33 -9 49
-77 126 -43 48 -111 116 -150 151 -64 55 -78 63 -113 63 -33 0 -50 -8 -95 -44
-84 -69 -134 -88 -247 -94 -92 -4 -100 -3 -160 26 -137 65 -203 161 -217 317
-11 114 -30 135 -128 146 -79 9 -245 9 -320 0z m354 -726 c247 -48 491 -216
631 -434 97 -151 141 -293 149 -478 7 -151 -6 -250 -44 -358 -30 -82 -80 -185
-91 -185 -4 0 -101 94 -217 210 l-209 209 19 58 c27 83 32 240 10 323 -53 205
-227 381 -431 435 -65 17 -217 21 -277 6 -21 -5 -47 -17 -58 -27 -41 -37 -27
-60 137 -229 l155 -160 -6 -45 c-14 -107 -29 -181 -40 -190 -6 -5 -60 -17
-119 -26 l-108 -16 -61 58 c-34 32 -106 102 -160 156 -104 104 -135 119 -170
80 -37 -41 -49 -219 -22 -327 56 -221 247 -404 462 -446 81 -15 222 -7 296 16
l58 19 215 -215 c244 -244 234 -215 99 -280 -509 -242 -1119 9 -1326 546 -48
124 -62 218 -56 380 4 102 11 160 26 214 99 338 362 600 697 692 141 39 288
43 441 14z"/>
</g>
</svg>
