<?xml version="1.0" standalone="no"?>
<!DOCTYPE svg PUBLIC "-//W3C//DTD SVG 20010904//EN"
 "http://www.w3.org/TR/2001/REC-SVG-20010904/DTD/svg10.dtd">
<svg version="1.0" xmlns="http://www.w3.org/2000/svg"
 width="521.000000pt" height="479.000000pt" viewBox="0 0 521.000000 479.000000"
 preserveAspectRatio="xMidYMid meet">

<g transform="translate(0.000000,479.000000) scale(0.100000,-0.100000)"
fill="#000000" stroke="none">
<path d="M3158 4482 c-59 -147 -238 -593 -399 -992 -160 -399 -294 -734 -296
-745 -3 -11 21 -77 52 -145 31 -69 59 -133 62 -143 3 -10 -25 -90 -62 -182
-67 -162 -69 -164 -114 -188 -43 -24 -420 -220 -951 -497 -129 -67 -262 -137
-295 -155 -33 -18 -107 -56 -165 -85 -113 -57 -144 -80 -166 -122 -22 -42 -17
-77 20 -148 50 -95 55 -95 211 -12 72 38 229 121 350 184 121 64 366 193 544
287 178 94 325 170 326 169 2 -2 -21 -59 -50 -128 -63 -150 -215 -513 -261
-624 -103 -250 -54 -544 121 -722 206 -209 493 -206 705 6 123 122 190 289
190 469 0 111 -19 195 -68 306 -71 163 -133 378 -167 577 -17 103 -34 334 -25
347 6 10 71 44 75 39 1 -2 53 -104 115 -228 62 -124 117 -230 122 -237 12 -15
102 27 112 52 13 34 3 60 -106 271 -105 205 -110 218 -93 230 10 8 22 14 25
14 3 0 59 -102 125 -227 65 -126 122 -234 128 -240 7 -10 16 -9 41 4 17 8 32
17 34 18 2 2 -49 104 -113 227 -65 122 -121 231 -126 240 -7 14 -3 21 19 32
l28 14 118 -226 c65 -125 124 -233 131 -240 10 -12 18 -11 44 2 17 9 31 20 31
24 0 4 -57 113 -125 242 -113 212 -123 236 -108 248 9 6 22 12 28 12 6 0 64
-102 129 -227 65 -126 122 -232 127 -237 5 -6 23 -3 45 7 l36 17 -50 93 c-192
359 -206 389 -187 403 10 8 21 14 24 14 3 0 62 -107 130 -238 68 -130 125
-239 127 -241 5 -5 63 20 69 30 3 4 -51 115 -120 246 -113 216 -123 239 -108
251 9 6 22 12 28 12 6 0 66 -106 134 -235 67 -129 127 -235 132 -235 6 0 23 7
40 15 29 16 29 16 13 48 -9 18 -66 126 -127 241 -104 197 -109 210 -92 223 38
27 23 48 186 -262 115 -220 101 -201 138 -185 17 7 31 19 31 27 0 8 -54 118
-121 244 -66 127 -119 232 -117 233 1 2 13 8 25 15 25 13 23 16 171 -269 118
-225 103 -205 141 -186 17 9 31 21 31 27 0 6 -54 114 -120 240 -66 126 -120
233 -120 238 0 4 11 13 24 19 24 11 27 7 151 -229 70 -131 129 -239 131 -239
12 0 64 31 64 39 0 8 -202 400 -226 438 -20 32 -17 48 10 61 23 10 26 4 147
-229 68 -131 129 -239 136 -239 19 0 63 22 63 32 0 5 -54 112 -121 239 -115
219 -132 265 -93 257 8 -2 68 -104 136 -233 66 -126 122 -232 124 -234 2 -3
20 3 39 12 l35 17 -44 87 c-24 49 -80 157 -125 242 -75 142 -80 155 -64 167
10 7 21 14 25 14 3 0 36 -57 73 -127 37 -71 94 -179 127 -240 l60 -113 31 16
c18 9 34 18 36 20 2 1 -51 109 -118 238 -67 129 -121 239 -121 244 0 5 10 14
23 19 23 11 27 3 141 -216 65 -124 124 -232 131 -239 10 -12 18 -11 44 2 17 9
31 19 31 21 0 3 -44 89 -99 192 -54 104 -110 212 -125 240 l-26 52 29 15 29
15 122 -232 c67 -128 125 -236 130 -240 7 -8 70 18 70 29 0 3 -53 108 -117
232 -65 125 -119 232 -121 239 -3 11 36 39 43 31 1 -2 58 -109 125 -238 68
-129 124 -236 126 -238 6 -9 64 30 64 43 0 9 -54 118 -120 244 -66 125 -120
230 -120 233 0 7 60 32 64 27 1 -2 54 -101 116 -219 62 -118 120 -221 128
-227 21 -18 57 -16 95 3 18 9 33 18 35 19 2 2 -69 147 -158 324 -169 336 -180
353 -252 366 -32 6 -55 -3 -209 -83 -145 -74 -1063 -554 -1643 -857 -115 -60
-147 -74 -143 -59 6 23 158 662 322 1359 35 149 103 434 151 635 47 201 86
382 86 403 -1 43 -10 77 -20 77 -4 0 -55 -121 -114 -268z m-459 -1697 c33 -16
41 -33 41 -81 0 -40 -34 -68 -83 -66 -37 1 -77 40 -77 75 0 29 26 66 54 77 29
12 33 12 65 -5z m-101 -1720 c68 -37 117 -91 155 -173 25 -54 31 -80 35 -161
5 -113 -16 -189 -76 -279 -133 -202 -409 -204 -542 -4 -123 186 -77 467 97
592 67 48 108 60 198 57 66 -3 90 -8 133 -32z"/>
<path d="M4515 3600 c-40 -6 -122 -35 -245 -87 -102 -44 -437 -187 -745 -317
-308 -131 -565 -243 -572 -250 -12 -12 -97 -405 -89 -413 3 -3 87 45 188 107
101 62 298 184 438 270 140 86 419 258 620 381 201 124 393 242 428 263 58 35
79 58 50 55 -7 -1 -40 -5 -73 -9z"/>
<path d="M725 2704 c-33 -8 -98 -33 -145 -56 -119 -58 -239 -177 -298 -298
-56 -114 -76 -194 -75 -305 2 -228 129 -403 338 -467 168 -52 340 -18 525 101
41 27 167 105 280 174 113 68 324 198 470 287 146 90 346 212 445 272 99 61
186 116 193 123 12 10 8 26 -22 90 -30 64 -39 76 -53 70 -10 -5 -68 -25 -129
-47 -273 -95 -540 -118 -822 -73 -103 17 -280 66 -354 99 -107 47 -236 58
-353 30z m227 -210 c61 -20 132 -83 165 -148 59 -114 37 -284 -51 -404 -183
-248 -540 -239 -637 17 -17 45 -20 72 -17 141 5 110 43 195 124 281 116 121
263 161 416 113z"/>
</g>
</svg>
